# xmcd
#
# Track frame offsets: 
#        150
#        14285
#        28825
#        41135
#        59710
#        76225
#        86900
#        96850
#
# Disc length: 1600 seconds
#
# Revision: 2
# Processed by: cddbd v1.5.2PL0 Copyright (c) Steve Scherf et al.
# Submitted via: ExactAudioCopyFreeDBPlugin 1.0
#
DISCID=66063e08
DTITLE=Al Green - Truth n' Time
DYEAR=1978
DGENRE=Soul
TTITLE0=Blow Me Down
TTITLE1=Lo and Behold
TTITLE2=Wait Here
TTITLE3=To Sir with Love
TTITLE4=Truth n' Time
TTITLE5=King of All
TTITLE6=Say a Little Praysr
TTITLE7=Happy Days
EXTD=
EXTT0=
EXTT1=
EXTT2=
EXTT3=
EXTT4=
EXTT5=
EXTT6=
EXTT7=
PLAYORDER=
